# Blender 4.2.0
# Trimmed fixture: every `o` from the real FLAT PACK export,
# reduced to its two bounding corners. The reader only reads `o` and `v`.
mtllib flat-pack.mtl
o G-Adjustable_Shelf
v -2.181120 0.481998 0.550000
v -1.314218 0.498000 0.550000
o G-Adjustable_Shelf.001
v -2.181120 0.481998 0.016092
v -1.314218 0.498000 0.550000
o G-Door(L)
v -2.196158 0.101500 0.572000
v -1.749118 0.878486 0.588002
o G-Door(R)
v -1.746158 0.101500 0.572000
v -1.299118 0.878486 0.588002
o G-Door(L).001
v -2.196158 0.101500 0.572000
v -1.749118 0.878486 0.588002
o G-Door(R).001
v -1.746158 0.101500 0.572000
v -1.299118 0.878486 0.588002
o G-Adjustable_Shelf.002
v -2.181120 0.481998 0.016092
v -1.314218 0.498000 0.550000
o G-UEnd_(L)
v -2.197618 0.100000 0.570074
v -2.181616 0.880034 0.570074
o G-UEnd_(L).001
v -2.197618 0.100000 0.016100
v -2.181616 0.880034 0.570074
o G-UBack
v -2.197540 0.100000 0.000000
v -1.297618 0.100000 0.016002
o G-UEnd_(R)
v -1.313620 0.100000 0.016026
v -1.297618 0.880034 0.570000
o G-Bottom
v -2.181518 0.100000 0.016026
v -1.313600 0.116002 0.570000
o G-Top
v -2.181636 0.863998 0.016026
v -1.313718 0.880000 0.570000
o G-Top.001
v -2.181636 0.863998 0.016026
v -1.313718 0.880000 0.570000
o G-UEnd_(L).002
v -2.197618 0.100000 0.016100
v -2.181616 0.880034 0.570074
o G-Bottom.001
v -2.181518 0.100000 0.570000
v -1.313600 0.116002 0.570000
o G-Top.002
v -2.181636 0.863998 0.570000
v -1.313718 0.880000 0.570000
o G-UEnd_(R).001
v -1.313620 0.100000 0.016026
v -1.297618 0.880034 0.570000
o G-Bottom.002
v -2.181518 0.100000 0.016026
v -1.313600 0.116002 0.570000
o G-UBack.001
v -2.197540 0.100000 0.000000
v -1.297618 0.880034 0.016002
o G-UEnd_(R).002
v -1.313620 0.100000 0.570000
v -1.297618 0.880034 0.570000
o G-UBack.002
v -2.197540 0.100000 0.000000
v -1.297618 0.880034 0.016002
o C-Knob_01
v -1.796743 0.786425 0.588100
v -1.764993 0.818175 0.607100
o _G-Object.001_(Loose_Mesh)
v -2.171286 0.000000 0.474238
v -2.123950 0.100000 0.515762
o G-Object.003
v -2.180827 0.082400 0.466500
v -2.123827 0.100000 0.523500
o _G-Object.005_(Loose_Mesh)
v -1.371286 0.000000 0.019239
v -1.323950 0.100000 0.060762
o G-Object.007
v -1.371409 0.082400 0.011500
v -1.314409 0.100000 0.068500
o _G-Object.009_(Loose_Mesh)
v -1.371286 0.000000 0.474238
v -1.323950 0.100000 0.515762
o G-Object.011
v -1.371409 0.082400 0.466500
v -1.314409 0.100000 0.523500
o _G-Object.013_(Loose_Mesh)
v -2.171286 0.000000 0.019239
v -2.123950 0.100000 0.060762
o G-Object.015
v -2.180827 0.082400 0.011500
v -2.123827 0.100000 0.068500
o C-Knob_#1
v -1.730243 0.786425 0.588100
v -1.698493 0.818175 0.607100
o G-Adjustable_Shelf.003
v -2.181120 2.075998 0.340000
v -1.314218 2.092000 0.340000
o G-Bottom.003
v -2.181518 1.500000 0.016084
v -1.313600 1.516002 0.360000
o G-Adjustable_Shelf.004
v -2.181120 1.788098 0.016150
v -1.314218 1.804100 0.340000
o G-Panelized_End
v -2.197520 1.500000 0.000082
v -2.181518 2.380110 0.360000
o G-Door(L).002
v -2.196158 1.501500 0.362000
v -1.749118 2.378562 0.378002
o G-Adjustable_Shelf.005
v -2.181120 2.075998 0.016150
v -1.314218 2.092000 0.340000
o G-Panelized_End.001
v -2.197520 1.500000 0.000082
v -2.181518 2.380110 0.360000
o G-Door(L).003
v -2.196158 1.501500 0.362000
v -1.749118 2.378562 0.378002
o G-Adjustable_Shelf.006
v -2.181120 1.788098 0.340000
v -1.314218 1.804100 0.340000
o G-Adjustable_Shelf.007
v -2.181120 2.075998 0.016150
v -1.314218 2.092000 0.340000
o G-Door(R).002
v -1.746158 1.501500 0.362000
v -1.299118 2.378562 0.378002
o G-Door(R).003
v -1.746158 1.501500 0.362000
v -1.299118 2.378562 0.378002
o G-Adjustable_Shelf.008
v -2.181120 1.788098 0.016150
v -1.314218 1.804100 0.340000
o G-UBack.003
v -2.181538 1.500000 0.000000
v -1.297618 2.380110 0.016002
o G-UEnd_(R).003
v -1.313620 1.500000 0.016084
v -1.297618 2.380110 0.360000
o G-Top.003
v -2.181636 2.363998 0.360000
v -1.313718 2.380000 0.360000
o G-Top.004
v -2.181636 2.363998 0.016084
v -1.313718 2.380000 0.360000
o G-UBack.004
v -2.181538 1.500000 0.000000
v -1.297618 2.380110 0.016002
o G-UEnd_(R).004
v -1.313620 1.500000 0.016084
v -1.297618 2.380110 0.360000
o G-Bottom.004
v -2.181518 1.500000 0.016084
v -1.313600 1.516002 0.360000
o G-UBack.005
v -2.181538 1.500000 0.000000
v -1.297618 1.500000 0.016002
o G-UEnd_(R).005
v -1.313620 1.500000 0.016084
v -1.297618 2.380110 0.360000
o G-Top.005
v -2.181636 2.363998 0.016084
v -1.313718 2.380000 0.360000
o G-Bottom.005
v -2.181518 1.500000 0.360000
v -1.313600 1.516002 0.360000
o C-Knob_#3
v -1.730243 1.561825 0.378100
v -1.698493 1.593575 0.397100
o C-Knob_#2
v -1.796743 1.561825 0.378100
v -1.764993 1.593575 0.397100
o G-Drw_Back
v -1.260518 0.143100 0.082000
v -0.934636 0.317344 0.098002
o G-Drw_L_Side
v -1.276618 0.143100 0.082034
v -1.260616 0.317344 0.572000
o G-Drw_Front
v -1.260600 0.674350 0.555998
v -0.934718 0.823956 0.572000
o G-Drw_Front.001
v -1.260600 0.577626 0.555998
v -0.934718 0.577626 0.572000
o G-Drw_L_Side.001
v -1.276618 0.143100 0.082034
v -1.260616 0.317344 0.572000
o G-Drw_Front.002
v -1.260600 0.317504 0.555998
v -0.934718 0.317504 0.572000
o G-Drw_Back.001
v -1.260518 0.317344 0.082000
v -0.934636 0.317344 0.098002
o G-Drw_R_Side
v -0.934620 0.143100 0.082000
v -0.918618 0.317344 0.571966
o G-Drw_Front.003
v -1.260600 0.414050 0.555998
v -0.934718 0.577626 0.572000
o G-Drw_L_Side.002
v -1.276618 0.143100 0.082034
v -1.260616 0.317344 0.572000
o G-Drw_R_Side.001
v -0.934620 0.143100 0.082000
v -0.918618 0.317344 0.571966
o G-Drw_Front.004
v -1.260600 0.414050 0.555998
v -0.934718 0.577626 0.572000
o G-Drw_Back.002
v -1.260518 0.143100 0.082000
v -0.934636 0.317344 0.098002
o G-Drw_Front.005
v -1.260600 0.674350 0.555998
v -0.934718 0.823956 0.572000
o G-Drw_R_Side.002
v -0.934620 0.143100 0.082000
v -0.918618 0.317344 0.571966
o G-Drw_Front.006
v -1.260600 0.823956 0.555998
v -0.934718 0.823956 0.572000
o G-Drw_Back.003
v -1.260518 0.385950 0.082000
v -0.934636 0.577720 0.098002
o G-Drw_Back.004
v -1.260518 0.385950 0.082000
v -0.934636 0.577720 0.098002
o G-Drw_R_Side.003
v -0.934620 0.385950 0.082000
v -0.918618 0.577720 0.571966
o G-Drw_L_Side.003
v -1.276618 0.646250 0.082034
v -1.260616 0.823796 0.572000
o G-Drw_R_Side.004
v -0.934620 0.646250 0.082000
v -0.918618 0.823796 0.571966
o G-Drw_L_Side.004
v -1.276618 0.646250 0.082034
v -1.260616 0.823796 0.572000
o G-Drw_R_Side.005
v -0.934620 0.646250 0.082000
v -0.918618 0.823796 0.571966
o G-Drw_Back.005
v -1.260518 0.577720 0.082000
v -0.934636 0.577720 0.098002
o G-Drw_Back.006
v -1.260518 0.823796 0.082000
v -0.934636 0.823796 0.098002
o G-Drw_L_Side.005
v -1.276618 0.385950 0.082034
v -1.260616 0.577720 0.572000
o G-Drw_Back.007
v -1.260518 0.646250 0.082000
v -0.934636 0.823796 0.098002
o G-Drw_Back.008
v -1.260518 0.646250 0.082000
v -0.934636 0.823796 0.098002
o G-Drw_L_Side.006
v -1.276618 0.646250 0.082034
v -1.260616 0.823796 0.572000
o G-Drw_L_Side.007
v -1.276618 0.385950 0.082034
v -1.260616 0.577720 0.572000
o G-Drw_R_Side.006
v -0.934620 0.646250 0.082000
v -0.918618 0.823796 0.571966
o G-Drw_L_Side.008
v -1.276618 0.385950 0.082034
v -1.260616 0.577720 0.572000
o G-Bottom.006
v -1.281518 0.100000 0.016026
v -0.913726 0.116002 0.570000
o G-Bottom.007
v -1.281518 0.100000 0.016026
v -0.913726 0.116002 0.570000
o G-Top.006
v -1.281510 0.863998 0.016026
v -0.913718 0.880000 0.570000
o G-UBack.006
v -1.297668 0.100000 0.000000
v -0.897618 0.880034 0.016002
o G-Bottom.008
v -1.281518 0.100000 0.570000
v -0.913726 0.116002 0.570000
o G-UBack.007
v -1.297668 0.100000 0.000000
v -0.897618 0.100000 0.016002
o G-Top.007
v -1.281510 0.863998 0.016026
v -0.913718 0.880000 0.570000
o G-Drw_Bottom
v -1.260600 0.155100 0.098036
v -0.934718 0.171102 0.572000
o G-Drw_Bottom.001
v -1.260600 0.397950 0.098036
v -0.934718 0.413952 0.572000
o G-Drw_Bottom.002
v -1.260600 0.658250 0.098036
v -0.934718 0.674252 0.572000
o G-Drw_R_Side.007
v -0.934620 0.385950 0.082000
v -0.918618 0.577720 0.571966
o G-UBack.008
v -1.297668 0.100000 0.000000
v -0.897618 0.880034 0.016002
o G-Drw_R_Side.008
v -0.934620 0.385950 0.082000
v -0.918618 0.577720 0.571966
o G-Drw_Bottom.003
v -1.260600 0.155100 0.098036
v -0.934718 0.171102 0.572000
o G-Drw_Bottom.004
v -1.260600 0.397950 0.098036
v -0.934718 0.413952 0.572000
o G-Drw_Bottom.005
v -1.260600 0.658250 0.098036
v -0.934718 0.674252 0.572000
o G-Drawer
v -1.296120 0.359000 0.572000
v -0.899118 0.617826 0.588002
o G-Drawer.001
v -1.296120 0.619300 0.572000
v -0.899118 0.878380 0.588002
o G-Drawer.002
v -1.296120 0.101500 0.572000
v -0.899118 0.357278 0.588002
o G-Drw_Front.007
v -1.260600 0.171200 0.555998
v -0.934718 0.317504 0.572000
o G-Drawer.003
v -1.296120 0.101500 0.572000
v -0.899118 0.357278 0.588002
o G-Drawer.004
v -1.296120 0.619300 0.572000
v -0.899118 0.878380 0.588002
o G-Drawer.005
v -1.296120 0.359000 0.572000
v -0.899118 0.617826 0.588002
o G-Drw_Front.008
v -1.260600 0.171200 0.555998
v -0.934718 0.317504 0.572000
o G-UEnd_(R).006
v -0.913620 0.100000 0.016026
v -0.897618 0.880034 0.570000
o G-UEnd_(L).003
v -1.297618 0.100000 0.016100
v -1.281616 0.880034 0.570074
o G-Top.008
v -1.281510 0.863998 0.570000
v -0.913718 0.880000 0.570000
o G-UEnd_(R).007
v -0.913620 0.100000 0.570000
v -0.897618 0.880034 0.570000
o G-UEnd_(R).008
v -0.913620 0.100000 0.016026
v -0.897618 0.880034 0.570000
o G-UEnd_(L).004
v -1.297618 0.100000 0.016100
v -1.281616 0.880034 0.570074
o G-UEnd_(L).005
v -1.297618 0.100000 0.570074
v -1.281616 0.880034 0.570074
o C-Knob_#5
v -1.113493 0.472475 0.588100
v -1.081743 0.504225 0.607100
o C-Knob_#6
v -1.113493 0.733025 0.588100
v -1.081743 0.764775 0.607100
o _G-Object.017_(Loose_Mesh)
v -1.271286 0.000000 0.474238
v -1.223950 0.100000 0.515762
o G-Object.019
v -1.280827 0.082400 0.466500
v -1.223827 0.100000 0.523500
o _G-Object.021_(Loose_Mesh)
v -0.971286 0.000000 0.474238
v -0.923950 0.100000 0.515762
o G-Object.023
v -0.971409 0.082400 0.466500
v -0.914409 0.100000 0.523500
o _G-Object.025_(Loose_Mesh)
v -1.271286 0.000000 0.019239
v -1.223950 0.100000 0.060762
o G-Object.027
v -1.280827 0.082400 0.011500
v -1.223827 0.100000 0.068500
o C-Knob_#4
v -1.113493 0.213575 0.588100
v -1.081743 0.245325 0.607100
o _G-Object.029_(Loose_Mesh)
v -0.971286 0.000000 0.019239
v -0.923950 0.100000 0.060762
o G-Object.031
v -0.971409 0.082400 0.011500
v -0.914409 0.100000 0.068500
o G-Door(L).004
v -0.896158 0.101500 0.572000
v -0.449118 0.878486 0.588002
o G-Adjustable_Shelf.009
v -0.881120 0.481998 0.550000
v -0.014218 0.498000 0.550000
o G-Adjustable_Shelf.010
v -0.881120 0.481998 0.016092
v -0.014218 0.498000 0.550000
o G-Door(L).005
v -0.896158 0.101500 0.572000
v -0.449118 0.878486 0.588002
o G-UEnd_(L).006
v -0.897618 0.100000 0.016100
v -0.881616 0.880034 0.570074
o G-UEnd_(R).009
v -0.013620 0.100000 0.016026
v 0.002382 0.880034 0.570000
o G-Door(R).004
v -0.446158 0.101500 0.572000
v 0.000882 0.878486 0.588002
o G-UEnd_(R).010
v -0.013620 0.100000 0.016026
v 0.002382 0.880034 0.570000
o G-Adjustable_Shelf.011
v -0.881120 0.481998 0.016092
v -0.014218 0.498000 0.550000
o G-UEnd_(L).007
v -0.897618 0.100000 0.016100
v -0.881616 0.880034 0.570074
o G-UEnd_(L).008
v -0.897618 0.100000 0.570074
v -0.881616 0.880034 0.570074
o G-Door(R).005
v -0.446158 0.101500 0.572000
v 0.000882 0.878486 0.588002
o G-UEnd_(R).011
v -0.013620 0.100000 0.570000
v 0.002382 0.880034 0.570000
o G-Bottom.009
v -0.881518 0.100000 0.570000
v -0.013600 0.116002 0.570000
o G-UBack.009
v -0.897540 0.100000 0.000000
v 0.002382 0.100000 0.016002
o G-Top.009
v -0.881636 0.863998 0.016026
v -0.013718 0.880000 0.570000
o G-UBack.010
v -0.897540 0.100000 0.000000
v 0.002382 0.880034 0.016002
o G-Bottom.010
v -0.881518 0.100000 0.016026
v -0.013600 0.116002 0.570000
o G-Bottom.011
v -0.881518 0.100000 0.016026
v -0.013600 0.116002 0.570000
o G-UBack.011
v -0.897540 0.100000 0.000000
v 0.002382 0.880034 0.016002
o G-Top.010
v -0.881636 0.863998 0.016026
v -0.013718 0.880000 0.570000
o G-Top.011
v -0.881636 0.863998 0.570000
v -0.013718 0.880000 0.570000
o _G-Object.033_(Loose_Mesh)
v -0.071286 0.000000 0.474238
v -0.023950 0.100000 0.515762
o G-Object.035
v -0.071409 0.082400 0.466500
v -0.014409 0.100000 0.523500
o C-Knob_#8
v -0.430243 0.786425 0.588100
v -0.398493 0.818175 0.607100
o _G-Object.037_(Loose_Mesh)
v -0.071286 0.000000 0.019239
v -0.023950 0.100000 0.060762
o G-Object.039
v -0.071409 0.082400 0.011500
v -0.014409 0.100000 0.068500
o _G-Object.041_(Loose_Mesh)
v -0.871286 0.000000 0.019239
v -0.823950 0.100000 0.060762
o G-Object.043
v -0.880827 0.082400 0.011500
v -0.823827 0.100000 0.068500
o _G-Object.045_(Loose_Mesh)
v -0.871286 0.000000 0.474238
v -0.823950 0.100000 0.515762
o G-Object.047
v -0.880827 0.082400 0.466500
v -0.823827 0.100000 0.523500
o C-Knob_#7
v -0.496743 0.786425 0.588100
v -0.464993 0.818175 0.607100
o G-UEnd_(L).009
v -1.297618 1.500000 0.016100
v -1.281616 2.380110 0.360016
o G-UEnd_(R).012
v -0.913620 1.500000 0.016084
v -0.897618 2.380110 0.360000
o G-Top.012
v -1.281510 2.363998 0.360000
v -0.913718 2.380000 0.360000
o G-UEnd_(L).010
v -1.297618 1.500000 0.016100
v -1.281616 2.380110 0.360016
o G-UEnd_(L).011
v -1.297618 1.500000 0.016100
v -1.281616 2.380110 0.360016
o G-Top.013
v -1.281510 2.363998 0.016084
v -0.913718 2.380000 0.360000
o G-Adjustable_Shelf.012
v -1.280994 1.788098 0.340000
v -0.914218 1.804100 0.340000
o G-UBack.012
v -1.297668 1.500000 0.000000
v -0.897618 1.500000 0.016002
o G-Adjustable_Shelf.013
v -1.280994 1.788098 0.016150
v -0.914218 1.804100 0.340000
o G-Door(L).006
v -1.296120 1.501500 0.362000
v -0.899118 2.378562 0.378002
o G-Adjustable_Shelf.014
v -1.280994 1.788098 0.016150
v -0.914218 1.804100 0.340000
o G-UBack.013
v -1.297668 1.500000 0.000000
v -0.897618 2.380110 0.016002
o G-Adjustable_Shelf.015
v -1.280994 2.075998 0.340000
v -0.914218 2.092000 0.340000
o G-Bottom.012
v -1.281518 1.500000 0.016084
v -0.913726 1.516002 0.360000
o G-Top.014
v -1.281510 2.363998 0.016084
v -0.913718 2.380000 0.360000
o G-Bottom.013
v -1.281518 1.500000 0.016084
v -0.913726 1.516002 0.360000
o G-Door(L).007
v -1.296120 1.501500 0.362000
v -0.899118 2.378562 0.378002
o G-Adjustable_Shelf.016
v -1.280994 2.075998 0.016150
v -0.914218 2.092000 0.340000
o G-Bottom.014
v -1.281518 1.500000 0.360000
v -0.913726 1.516002 0.360000
o G-Adjustable_Shelf.017
v -1.280994 2.075998 0.016150
v -0.914218 2.092000 0.340000
o G-UBack.014
v -1.297668 1.500000 0.000000
v -0.897618 2.380110 0.016002
o G-UEnd_(R).013
v -0.913620 1.500000 0.016084
v -0.897618 2.380110 0.360000
o G-UEnd_(R).014
v -0.913620 1.500000 0.016084
v -0.897618 2.380110 0.360000
o C-Knob_#9
v -0.946743 1.561825 0.378100
v -0.914993 1.593575 0.397100
o G-Bottom.015
v -0.881518 1.500000 0.360000
v -0.013600 1.516002 0.360000
o G-Adjustable_Shelf.018
v -0.881120 2.075998 0.016150
v -0.014218 2.092000 0.340000
o G-Door(L).008
v -0.896158 1.501500 0.362000
v -0.449118 2.378562 0.378002
o G-Door(R).006
v -0.446158 1.501500 0.362000
v 0.000882 2.378562 0.378002
o G-Door(R).007
v -0.446158 1.501500 0.362000
v 0.000882 2.378562 0.378002
o G-Door(L).009
v -0.896158 1.501500 0.362000
v -0.449118 2.378562 0.378002
o G-Adjustable_Shelf.019
v -0.881120 2.075998 0.016150
v -0.014218 2.092000 0.340000
o G-Adjustable_Shelf.020
v -0.881120 1.788098 0.016150
v -0.014218 1.804100 0.340000
o G-Adjustable_Shelf.021
v -0.881120 1.788098 0.340000
v -0.014218 1.804100 0.340000
o G-Top.015
v -0.881636 2.363998 0.016084
v -0.013718 2.380000 0.360000
o G-Adjustable_Shelf.022
v -0.881120 1.788098 0.016150
v -0.014218 1.804100 0.340000
o G-Bottom.016
v -0.881518 1.500000 0.016084
v -0.013600 1.516002 0.360000
o G-Top.016
v -0.881636 2.363998 0.016084
v -0.013718 2.380000 0.360000
o G-Adjustable_Shelf.023
v -0.881120 2.075998 0.340000
v -0.014218 2.092000 0.340000
o G-Bottom.017
v -0.881518 1.500000 0.016084
v -0.013600 1.516002 0.360000
o G-Top.017
v -0.881636 2.363998 0.360000
v -0.013718 2.380000 0.360000
o G-UEnd_(R).015
v -0.013620 1.500000 0.016084
v 0.002382 2.380110 0.360000
o G-UBack.015
v -0.897540 1.500000 0.000000
v 0.002382 2.380110 0.016002
o G-UBack.016
v -0.897540 1.500000 0.000000
v 0.002382 2.380110 0.016002
o G-UEnd_(R).016
v -0.013620 1.500000 0.016084
v 0.002382 2.380110 0.360000
o G-UEnd_(R).017
v -0.013620 1.500000 0.016084
v 0.002382 2.380110 0.360000
o G-UEnd_(L).012
v -0.897618 1.500000 0.016100
v -0.881616 2.380110 0.360016
o G-UEnd_(L).013
v -0.897618 1.500000 0.016100
v -0.881616 2.380110 0.360016
o G-UEnd_(L).014
v -0.897618 1.500000 0.016100
v -0.881616 2.380110 0.360016
o G-UBack.017
v -0.897540 1.500000 0.000000
v 0.002382 1.500000 0.016002
o C-Knob_#10
v -0.496743 1.561825 0.378100
v -0.464993 1.593575 0.397100
o C-Knob_#11
v -0.430243 1.561825 0.378100
v -0.398493 1.593575 0.397100
o G-FEnd_(R)
v 0.002380 0.000000 0.001090
v 0.018382 2.400046 0.589100
o G-FEnd_(R).001
v 0.002380 0.000000 0.001090
v 0.018382 2.400046 0.589100
o G-Door(R).008
v 0.419880 1.781500 0.572000
v 0.816882 2.378400 0.588002
o G-UEnd_(L).015
v 0.018382 1.780000 0.256100
v 0.034384 2.379948 0.570044
o G-Door(L).010
v 0.019880 1.781500 0.572000
v 0.416882 2.378400 0.588002
o G-Adjustable_Shelf.024
v 0.034956 2.071998 0.256122
v 0.801782 2.088000 0.550000
o G-UEnd_(L).016
v 0.018382 1.780000 0.256100
v 0.034384 2.379948 0.570044
o G-Door(R).009
v 0.419880 1.781500 0.572000
v 0.816882 2.378400 0.588002
o G-Door(L).011
v 0.019880 1.781500 0.572000
v 0.416882 2.378400 0.588002
o G-Adjustable_Shelf.025
v 0.034956 2.071998 0.256122
v 0.801782 2.088000 0.550000
o G-Adjustable_Shelf.026
v 0.034956 2.071998 0.550000
v 0.801782 2.088000 0.550000
o G-UEnd_(L).017
v 0.018382 1.780000 0.256100
v 0.034384 2.379948 0.570044
o G-UEnd_(R).018
v 0.802380 1.780000 0.256056
v 0.818382 2.379948 0.570000
o G-UEnd_(R).019
v 0.802380 1.780000 0.256056
v 0.818382 2.379948 0.570000
o G-Bottom.018
v 0.034482 1.780000 0.256056
v 0.802324 1.796002 0.570000
o G-Top.018
v 0.034440 2.363998 0.256056
v 0.802282 2.380000 0.570000
o G-Top.019
v 0.034440 2.363998 0.570000
v 0.802282 2.380000 0.570000
o G-Bottom.019
v 0.034482 1.780000 0.570000
v 0.802324 1.796002 0.570000
o G-Top.020
v 0.034440 2.363998 0.256056
v 0.802282 2.380000 0.570000
o G-UBack.018
v 0.018282 1.780000 0.240000
v 0.818382 2.379948 0.256002
o G-UBack.019
v 0.018282 1.780000 0.240000
v 0.818382 2.379948 0.256002
o G-UEnd_(R).020
v 0.802380 1.780000 0.256056
v 0.818382 2.379948 0.570000
o G-Bottom.020
v 0.034482 1.780000 0.256056
v 0.802324 1.796002 0.570000
o G-UBack.020
v 0.018282 1.780000 0.240000
v 0.818382 1.780000 0.256002
o C-Knob_#12
v 0.369257 1.841825 0.588100
v 0.401007 1.873575 0.607100
o C-Knob_#13
v 0.435757 1.841825 0.588100
v 0.467507 1.873575 0.607100
o G-FEnd_(R).002
v 0.818380 0.000000 0.001090
v 0.834382 2.400046 0.589100
o G-FEnd_(R).003
v 0.818380 0.000000 0.001090
v 0.834382 2.400046 0.589100
o G-Door(L).012
v 0.835880 0.101500 0.572000
v 1.232882 2.378610 0.588002
o G-Adjustable_Shelf.027
v 0.850956 1.457598 0.016092
v 1.617782 1.473600 0.550000
o G-Door(R).010
v 1.235880 0.101500 0.572000
v 1.632882 2.378610 0.588002
o G-Adjustable_Shelf.028
v 0.850956 1.910398 0.016092
v 1.617782 1.926400 0.550000
o G-Adjustable_Shelf.029
v 0.850956 0.552498 0.550000
v 1.617782 0.568500 0.550000
o G-Adjustable_Shelf.030
v 0.850956 1.457598 0.550000
v 1.617782 1.473600 0.550000
o G-Adjustable_Shelf.031
v 0.850956 0.552498 0.016092
v 1.617782 0.568500 0.550000
o G-Adjustable_Shelf.032
v 0.850956 0.552498 0.016092
v 1.617782 0.568500 0.550000
o G-Adjustable_Shelf.033
v 0.850956 1.457598 0.016092
v 1.617782 1.473600 0.550000
o G-Adjustable_Shelf.034
v 0.850956 1.910398 0.016092
v 1.617782 1.926400 0.550000
o G-Door(L).013
v 0.835880 0.101500 0.572000
v 1.232882 2.378610 0.588002
o G-Door(R).011
v 1.235880 0.101500 0.572000
v 1.632882 2.378610 0.588002
o G-UEnd_(L).018
v 0.834382 0.100000 0.570074
v 0.850384 2.379904 0.570074
o G-Fixed_Shelf
v 0.850440 1.004998 0.016026
v 1.618282 1.021000 0.570000
o G-UEnd_(L).019
v 0.834382 0.100000 0.016100
v 0.850384 2.379904 0.570074
o G-UEnd_(R).021
v 1.618380 0.100000 0.016026
v 1.634382 2.379904 0.570000
o G-Bottom.021
v 0.850482 0.100000 0.016026
v 1.618324 0.116002 0.570000
o G-UBack.021
v 0.834282 0.100000 0.000000
v 1.634382 0.100000 0.016002
o G-UEnd_(R).022
v 1.618380 0.100000 0.570000
v 1.634382 2.379904 0.570000
o G-Top.021
v 0.850440 2.363998 0.016026
v 1.618282 2.380000 0.570000
o G-Adjustable_Shelf.035
v 0.850956 1.910398 0.550000
v 1.617782 1.926400 0.550000
o G-Top.022
v 0.850440 2.363998 0.016026
v 1.618282 2.380000 0.570000
o G-UEnd_(L).020
v 0.834382 0.100000 0.016100
v 0.850384 2.379904 0.570074
o G-Fixed_Shelf.001
v 0.850440 1.004998 0.016026
v 1.618282 1.021000 0.570000
o G-Fixed_Shelf.002
v 0.850440 1.004998 0.570000
v 1.618282 1.021000 0.570000
o G-Top.023
v 0.850440 2.363998 0.570000
v 1.618282 2.380000 0.570000
o G-Bottom.022
v 0.850482 0.100000 0.016026
v 1.618324 0.116002 0.570000
o G-Bottom.023
v 0.850482 0.100000 0.570000
v 1.618324 0.116002 0.570000
o G-UBack.022
v 0.834282 0.100000 0.000000
v 1.634382 2.379904 0.016002
o G-UEnd_(R).023
v 1.618380 0.100000 0.016026
v 1.634382 2.379904 0.570000
o G-UBack.023
v 0.834282 0.100000 0.000000
v 1.634382 2.379904 0.016002
o C-Knob_#14
v 1.185257 1.224125 0.588100
v 1.217007 1.255875 0.607100
o _G-Object.049_(Loose_Mesh)
v 0.860714 0.000000 0.019239
v 0.908050 0.100000 0.060762
o G-Object.051
v 0.851173 0.082400 0.011500
v 0.908173 0.100000 0.068500
o _G-Object.053_(Loose_Mesh)
v 0.860714 0.000000 0.474238
v 0.908050 0.100000 0.515762
o G-Object.055
v 0.851173 0.082400 0.466500
v 0.908173 0.100000 0.523500
o C-Knob_#15
v 1.251757 1.224125 0.588100
v 1.283507 1.255875 0.607100
o _G-Object.057_(Loose_Mesh)
v 1.560714 0.000000 0.474238
v 1.608050 0.100000 0.515762
o G-Object.059
v 1.560591 0.082400 0.466500
v 1.617591 0.100000 0.523500
o _G-Object.061_(Loose_Mesh)
v 1.560714 0.000000 0.019239
v 1.608050 0.100000 0.060762
o G-Object.063
v 1.560591 0.082400 0.011500
v 1.617591 0.100000 0.068500
o G-FEnd_(R).004
v 1.634380 0.000000 0.001090
v 1.650382 2.400046 0.589100
o G-FEnd_(R).005
v 1.634380 0.000000 0.001090
v 1.650382 2.400046 0.589100
